HIERARCHY
ROOT hip
{
	OFFSET 0.000000 0.000000 0.000000 
	CHANNELS 6 Xposition Yposition Zposition Xrotation Zrotation Yrotation
	JOINT abdomen
	{
		OFFSET 0.000000 3.402643 0.000000 
		CHANNELS 3 Xrotation Zrotation Yrotation
		JOINT chest
		{
			OFFSET 0.000000 8.438565 -0.680529 
			CHANNELS 3 Xrotation Zrotation Yrotation
			JOINT neck
			{
				OFFSET 0.000000 10.207942 -0.272212 
				CHANNELS 3 Xrotation Zrotation Yrotation
				JOINT head
				{
					OFFSET 0.000000 3.130431 0.000000 
					CHANNELS 3 Xrotation Zrotation Yrotation
					End Site
					{
						OFFSET 0.000000 3.130435 0.000000 
					}
				}
			}
			JOINT lCollar
			{
				OFFSET 3.470700 6.669187 -0.816635 
				CHANNELS 3 Yrotation Zrotation Xrotation
				JOINT lShldr
				{
					OFFSET 3.198488 0.000000 0.000000 
					CHANNELS 3 Zrotation Yrotation Xrotation
					JOINT lForeArm
					{
						OFFSET 10.139888 0.000000 0.000000 
						CHANNELS 3 Yrotation Zrotation Xrotation
						JOINT lHand
						{
							OFFSET 8.370511 0.000000 0.000000 
							CHANNELS 3 Zrotation Yrotation Xrotation
							End Site
							{
								OFFSET 4.083176 0.000000 0.000000 
							}
						}
					}
				}
			}
			JOINT rCollar
			{
				OFFSET -3.470700 6.669187 -0.816635 
				CHANNELS 3 Yrotation Zrotation Xrotation
				JOINT rShldr
				{
					OFFSET -3.198488 0.000000 0.000000 
					CHANNELS 3 Zrotation Yrotation Xrotation
					JOINT rForeArm
					{
						OFFSET -10.139888 0.000000 0.000000 
						CHANNELS 3 Yrotation Zrotation Xrotation
						JOINT rHand
						{
							OFFSET -8.370511 0.000000 0.000000 
							CHANNELS 3 Zrotation Yrotation Xrotation
							End Site
							{
								OFFSET -4.083176 0.000000 0.000000 
							}
						}
					}
				}
			}
		}
	}
	JOINT lThigh
	{
		OFFSET 5.308129 -1.633274 1.361059 
		CHANNELS 3 Xrotation Zrotation Yrotation
		JOINT lShin
		{
			OFFSET -2.041588 -20.007561 0.000000 
			CHANNELS 3 Xrotation Zrotation Yrotation
			JOINT lFoot
			{
				OFFSET 0.000000 -19.190928 -1.224953 
				CHANNELS 3 Xrotation Yrotation Zrotation
				End Site
				{
					OFFSET 0.000000 -2.449906 4.627600 
				}
			}
		}
	}
	JOINT rThigh
	{
		OFFSET -5.308129 -1.633274 1.361059 
		CHANNELS 3 Xrotation Zrotation Yrotation
		JOINT rShin
		{
			OFFSET 2.041588 -20.007561 0.000000 
			CHANNELS 3 Xrotation Zrotation Yrotation
			JOINT rFoot
			{
				OFFSET 0.000000 -19.190928 -1.224953 
				CHANNELS 3 Xrotation Yrotation Zrotation
				End Site
				{
					OFFSET 0.000000 -2.449906 4.627600 
				}
			}
		}
	}
}
MOTION
Frames: 7
Frame Time: 0.033333
0.334508 49.638664 0.334508 0.000000 0.000000 0.000000 18.076170 -0.000052 -0.000031 -35.539619 -1.037740 -3.863324 4.815382 1.558000 -19.760790 10.524219 0.508720 -0.030344 -45.000000 18.254156 -25.000000 -57.356014 1.480136 9.643727 -102.061020 -3.187265 0.630565 38.880939 1.678013 -79.012825 -23.375172 18.018059 -25.000000 32.594490 -13.984629 83.520515 130.018661 2.932860 -0.090851 -6.862641 63.082638 58.331566 2.376307 2.553305 0.602678 2.310530 -1.853541 -1.517510 -4.662024 0.846682 -0.614829 2.206921 -3.085746 -0.644749 2.650610 1.831281 1.545582 -4.841407 -0.873909 1.111763 
0.334508 49.638664 0.334508 0.000000 0.000000 0.000000 18.583982 -0.000052 -0.000031 -35.548595 -0.858446 -3.207947 5.283117 0.014590 -7.733734 10.524219 0.508720 -0.030344 -45.000000 17.759422 -25.000000 -50.935616 -17.198597 9.317923 -92.693718 -3.196412 0.893455 38.356506 -1.389332 -80.764229 -11.306572 17.477589 -25.000000 43.992054 -15.362491 65.245369 128.120743 2.962149 -0.043932 3.720138 69.863571 71.770767 2.376307 2.553305 0.602678 2.310530 -1.853541 -1.517510 -4.662024 0.846682 -0.614829 2.206921 -3.085746 -0.644749 2.650610 1.831281 1.545582 -4.841407 -0.873909 1.111763 
0.334508 49.638664 0.334508 0.000000 0.000000 0.000000 19.375000 -0.000052 -0.000031 -35.567234 -0.594236 -2.194390 5.940061 -0.836205 -0.498337 10.524219 0.508720 -0.030344 -45.000000 17.124769 -25.000000 -40.365143 -35.281727 -2.880777 -75.403656 -3.096183 1.370206 37.566677 -7.849907 -84.352745 -4.235959 17.245195 -25.000000 55.199936 -8.077464 50.554054 118.874374 3.079710 0.184890 8.697736 71.696198 77.613937 2.376307 2.553305 0.602678 2.310530 -1.853541 -1.517510 -4.662024 0.846682 -0.614829 2.206921 -3.085746 -0.644749 2.650610 1.831281 1.545582 -4.841407 -0.873909 1.111763 
0.334508 49.638664 0.334508 0.000000 0.000000 0.000000 19.375000 -0.000052 -0.000031 -35.566753 -0.386704 -1.429646 7.567449 -0.401803 -2.356053 10.524219 0.508720 -0.030344 -45.000000 16.068390 -25.000000 -35.713299 -39.667461 -7.449023 -47.744148 -2.669516 2.000484 37.240673 -12.736351 -87.041199 -6.109795 17.936047 -25.000000 60.789341 -0.036002 49.167320 107.806473 3.170388 0.467856 0.269877 68.208107 67.585892 2.376307 2.553305 0.602678 2.310530 -1.853541 -1.517510 -4.662024 0.846682 -0.614829 2.206921 -3.085746 -0.644749 2.650610 1.831281 1.545582 -4.841407 -0.873909 1.111763 
0.334508 49.638664 0.334508 0.000000 0.000000 0.000000 19.375000 -0.000052 -0.000031 -35.576256 -0.188597 -0.672111 9.452200 0.704064 -7.051435 10.524219 0.508720 -0.030344 -45.000000 13.948911 -25.000000 -35.863991 -30.002266 -7.035420 -54.388474 -2.797683 1.869337 37.144478 -16.592623 -89.182938 -10.899394 18.862087 -25.000000 66.565681 7.565481 52.327698 95.261444 3.198287 0.821679 -7.860962 62.103420 56.934074 2.376307 2.553305 0.602678 2.310530 -1.853541 -1.517510 -4.662024 0.846682 -0.614829 2.206921 -3.085746 -0.644749 2.650610 1.831281 1.545582 -4.841407 -0.873909 1.111763 
0.334508 49.638664 0.334508 0.000000 0.000000 0.000000 19.375000 -0.000052 -0.000031 -35.576176 -0.056536 -0.189918 10.631047 1.621156 -10.463534 10.524219 0.508720 -0.030344 -45.000000 12.293346 -24.219675 -37.174019 -21.036787 -6.319206 -63.485584 -2.954787 1.662120 37.166607 -19.501860 -90.822845 -14.437973 19.444368 -25.000000 70.762650 11.944074 55.496681 86.982643 3.178799 1.050536 -11.360984 57.578030 51.634598 2.376307 2.553305 0.602678 2.310530 -1.853541 -1.517510 -4.662024 0.846682 -0.614829 2.206921 -3.085746 -0.644749 2.650610 1.831281 1.545582 -4.841407 -0.873909 1.111763 
0.334508 49.638664 0.334508 0.000000 0.000000 0.000000 19.375000 -0.000052 -0.000031 -35.576172 -0.009372 0.002521 11.065520 1.965449 -11.629831 10.524219 0.508720 -0.030344 -45.000000 11.688105 -23.855217 -37.542900 -18.139652 -6.309544 -66.381783 -2.994298 1.592794 37.195721 -20.476215 -91.381859 -15.659141 19.645557 -25.000000 72.514114 13.572350 56.680725 83.823433 3.159126 1.138887 -12.340500 55.903568 49.999783 2.376307 2.553305 0.602678 2.310530 -1.853541 -1.517510 -4.662024 0.846682 -0.614829 2.206921 -3.085746 -0.644749 2.650610 1.831281 1.545582 -4.841407 -0.873909 1.111763 
